<svg xmlns="http://www.w3.org/2000/svg" width="439" height="568" version="1.1"><path fill="#058505" d="M202 18h2c1.248 5.378 2.305 10.748 3.25 16.188 1.242 6.857 2.887 13.581 4.688 20.312l.729 2.786C214.214 62.93 216.215 67.85 219 73c8.816-15.358 11.869-32.562 13.706-49.957C233 21 233 21 234 18c3.383.577 4.93 1.59 7.242 4.098l1.793 1.931 1.84 2.034 1.816 1.95c3.585 3.9 6.867 7.925 9.978 12.21 1.286 1.717 2.656 3.301 4.081 4.902 2.295 2.933 3.313 5.297 4.25 8.875h2c1.29 1.645 1.29 1.645 2.625 3.813l1.352 2.144C272 62 272 62 272 65h2c3.646 6.395 6.984 12.908 10.125 19.563l.982 2.07c14.07 30.084 22.84 63.995 21.893 97.367 11.55-1.649 22.844-3.549 33.875-7.438l2.388-.836c4.843-1.79 9.274-4.014 13.75-6.586 2.267-1.3 4.593-2.46 6.925-3.64 6.43-3.462 12.204-7.821 18.044-12.182l2.272-1.685 2.041-1.535C388 149 388 149 390 149c1.13 32.013-4.593 64.823-18 94a759.626 759.626 0 0 0-1.863 4.777c-2.177 5.495-4.814 10.689-7.575 15.91l-1.408 2.721A111.02 111.02 0 0 1 352 281l-1.441 2.438c-2.254 3.705-4.88 7.107-7.497 10.562l-1.591 2.117A1185.565 1185.565 0 0 1 337 302l-2.254 3-1.746 2h-2l-.688 1.625c-1.746 3.16-3.952 5.643-6.312 8.375l2.313 2.313c1.375 1.375 2.748 2.753 4.062 4.187 1.95 1.8 3.977 2.935 6.313 4.188l2.449 1.324L341 330v2l1.71.38c2.43.658 4.616 1.541 6.923 2.546l2.695 1.166 2.797 1.22c6.917 3.008 13.856 5.926 20.875 8.688-6.044 10.365-14.444 18.962-25.516 23.828-2.8 1.321-5.232 2.938-7.796 4.672-5.92 3.838-12.031 6.231-18.688 8.5l-3.082 1.125c-28.961 9.909-62.569 5.691-89.918-7.125-2.752-1.576-5.377-3.19-7.957-5.031-2.775-1.316-4.16-.918-7.043.031-2.026 1.161-2.026 1.161-4.063 2.625C187.685 389.669 154.514 392.046 127 387c-4.159-1.028-8.03-2.403-12-4l-3.121-1.055c-7.037-2.45-13.002-5.645-19.123-9.823-3.179-2.168-6.194-3.71-9.756-5.122a83.84 83.84 0 0 1-4.813-3.5l-2.394-1.844L74 360v-2l-1.766-.754c-2.55-1.422-4.07-2.987-5.984-5.183l-1.86-2.09C63 348 63 348 63 345l2.027-.629C77.193 340.468 89.357 336.168 100 329h2l1-3c3.359-2.115 6.245-3.748 10-5 1.209-2 1.209-2 2-4-5.227-5.982-5.227-5.982-10.75-11.688-3.53-3.628-6.132-7.723-8.25-12.312h-2l-1.25-2.688c-1.566-3.234-1.566-3.234-3.492-5.425-3.069-3.924-5.578-8.116-8.133-12.387l-1.62-2.708c-4-6.77-7.43-13.55-10.505-20.792l-1.371-2.883c-8.203-17.74-14.212-37.58-16.385-57.007-.244-2.11-.542-4.205-.853-6.305C48.789 171.534 48.8 160.367 49 149c4.032 1.382 6.744 3.276 10 6 22.094 16.168 45.467 26.585 73 29l-.105-2.945c-.456-18.76 2.854-36.795 7.547-54.898.46-1.78.9-3.566 1.335-5.352 2.06-8.168 5.15-15.976 8.223-23.805.425-1.09.85-2.181 1.29-3.305 2.4-5.962 5.156-11.577 8.312-17.175 1.202-2.167 2.284-4.341 3.335-6.582C164.41 64.924 167.74 60.522 171 56c1.127-1.624 2.252-3.249 3.375-4.875a666.328 666.328 0 0 1 8.438-11.75l2.269-3.102L187 34h2l.719-2.2c1.48-3.235 3.245-5.13 5.781-7.613l2.406-2.394C200 20 200 20 202 20v-2Zm10.063 158.75-1.96 1.633-1.88 1.601-1.727 1.46c-1.652 1.718-2.45 3.432-3.496 5.556l-4 2c-1.268 2.034-1.268 2.034-2 4h-2c-2.201 2.333-4.03 4.987-5.938 7.563l-1.63 2.134c-3.217 4.304-5.45 8.32-7.432 13.303a248.952 248.952 0 0 1-2.875 4.75c-14.599 26.365-12.006 60.071-4.177 88.017 1.88 6.25 4.675 11.66 8.052 17.233l1.375 2.852c1.89 3.663 4.104 6.927 6.5 10.273l1.277 1.84c2.605 3.656 5.23 6.314 8.848 9.035l2.188 2.75c4.75 5.928 11.278 10.481 17.812 14.25 4.312-2.368 8.337-4.67 12-8v-2l2.125-.563c3.916-1.958 6.409-4.844 8.875-8.437v-2l3-1v-2h2c1.225-1.398 1.225-1.398 2.39-3.262l1.393-2.122 1.467-2.303 1.5-2.345C268.68 309.226 271.51 285.416 271 258l-.05-3.348C269.943 233.77 259.707 214.077 247 198l-2.305-2.938c-3.255-4.11-3.255-4.11-6.695-8.062h-2v-2c-3.589-4.024-7.526-7.046-12-10h-2l-2-4c-2.6 0-5.914 4.025-7.938 5.75Z"/><path fill="#3E850C" d="M202 18h2c1.248 5.378 2.305 10.748 3.25 16.188 1.258 7.017 3 13.873 4.875 20.75l.806 2.963c.9 4.383.9 4.383 3.069 8.099.234 1.849.413 3.705.563 5.563l.253 3.066L217 77h2l1 2.813c3.509 8.176 9.74 15.175 15.75 21.628C237 103 237 103 237 105h2c1.219 1.496 1.219 1.496 2.5 3.438 1.787 2.787 1.787 2.787 4.5 4.562l2 5 2 1c1.804 5.412 1.452 9.957-1.02 15.11L248 136l-1.137 2.266c-3.167 6.034-6.582 10.28-12.363 13.984-2.952 2.014-4.182 3.776-5.688 7-3.142 6.318-8.952 10.089-14.812 13.75h-2v3c-4.222 3-4.222 3-7 3l.313 2.188c-.441 3.964-2.416 5.185-5.313 7.812l-1.688 2.313L197 193h-2l-.723 1.637c-1.614 2.986-3.624 5.502-5.714 8.175-3.23 4.215-5.654 8.188-7.563 13.188-.955 1.586-1.914 3.169-2.875 4.75-14.599 26.365-12.006 60.071-4.177 88.017 1.877 6.24 4.639 11.686 8.052 17.233 1.566 3.025 2.925 5.775 4 9-4.257-.473-6.257-2.886-9-6l-1-3a932.816 932.816 0 0 0-4-2 184.641 184.641 0 0 1-5.813-5.313c-8.786-8.175-17.077-14.595-29.703-14.164-8.792 1.687-14.648 9.4-19.484 16.352-2.544 2.703-4.368 2.877-8 3.125l2-3h2l2-4c-5.227-5.982-5.227-5.982-10.75-11.688-3.53-3.628-6.132-7.723-8.25-12.312h-2l-1.25-2.688c-1.566-3.234-1.566-3.234-3.492-5.425-3.069-3.924-5.578-8.116-8.133-12.387l-1.62-2.708c-4-6.77-7.43-13.55-10.505-20.792l-1.371-2.883c-8.203-17.74-14.212-37.58-16.385-57.007-.244-2.11-.542-4.205-.853-6.305C48.789 171.534 48.8 160.367 49 149c4.032 1.382 6.744 3.276 10 6 22.094 16.168 45.467 26.585 73 29l-.105-2.945c-.456-18.76 2.854-36.795 7.547-54.898.46-1.78.9-3.566 1.335-5.352 2.06-8.168 5.15-15.976 8.223-23.805.425-1.09.85-2.181 1.29-3.305 2.4-5.962 5.156-11.577 8.312-17.175 1.202-2.167 2.284-4.341 3.335-6.582C164.41 64.924 167.74 60.522 171 56c1.127-1.624 2.252-3.249 3.375-4.875a666.328 666.328 0 0 1 8.438-11.75l2.269-3.102L187 34h2l.719-2.2c1.48-3.235 3.245-5.13 5.781-7.613l2.406-2.394C200 20 200 20 202 20v-2Z"/><path fill="#026210" d="M149.063 305.563c8.32 3.712 14.78 10.075 21.433 16.156 3.22 2.933 6.503 5.793 9.79 8.652C182 332 182 332 183 334l2.188.625c4.155 2.032 6.44 5.463 8.812 9.375v2l3 1v2l3 1v2l3 1a151.672 151.672 0 0 1 3.477 3.46c1.808 1.828 3.678 3.566 5.585 5.29l1.973 1.797c2.144 1.585 3.297 2.327 5.965 2.453 2.537-1.268 2.537-1.268 5-3.188l2.563-1.855c2.48-1.911 2.48-1.911 4.625-4.195C234 355 234 355 236 355l1-3h2l.75-1.688c1.514-2.8 3.054-4.994 5.25-7.312l3.063-.813c3.013-.837 3.013-.837 3.812-2.976.46-1.438.912-2.878 1.355-4.32 1.158-2.845 3.09-3.55 5.77-4.891a281.771 281.771 0 0 0 5-5 373.076 373.076 0 0 1 5.293-4.508c1.592-1.392 3.058-2.84 4.52-4.367C276 314 276 314 278 314v-2c7.067-6.6 13.627-8.454 23.172-8.242 6.944.594 12.166 5.331 16.828 10.242v2l4 1 1 6 3.938.688c5.27 1.145 9.509 3.492 14.062 6.312v2l1.71.38c2.43.658 4.616 1.541 6.923 2.546l2.695 1.166 2.797 1.22c6.917 3.008 13.856 5.926 20.875 8.688-6.044 10.365-14.444 18.962-25.516 23.828-2.8 1.321-5.232 2.938-7.796 4.672-5.92 3.838-12.031 6.231-18.688 8.5l-3.082 1.125c-28.961 9.909-62.569 5.691-89.918-7.125-2.752-1.576-5.377-3.19-7.957-5.031-2.775-1.316-4.16-.918-7.043.031-2.026 1.161-2.026 1.161-4.063 2.625C187.685 389.669 154.514 392.046 127 387c-4.159-1.028-8.03-2.403-12-4l-3.121-1.055c-7.037-2.45-13.002-5.645-19.123-9.823-3.179-2.168-6.194-3.71-9.756-5.122a83.84 83.84 0 0 1-4.813-3.5l-2.394-1.844L74 360v-2l-1.766-.754c-2.55-1.422-4.07-2.987-5.984-5.183l-1.86-2.09C63 348 63 348 63 345l2.027-.629C77.193 340.468 89.357 336.168 100 329h2l1-3c2.573-1.75 5.127-2.225 8.125-2.813 2.093-.442 2.093-.442 3.875-1.187 1.135-2.295 1.135-2.295 2-5 2.16-2.213 4.58-4.08 7-6 1.064-.915 2.126-1.832 3.188-2.75 6.815-5.452 13.73-5.648 21.874-2.688Z"/><path fill="#34A104" d="M202 18h2c1.248 5.378 2.305 10.748 3.25 16.188 1.258 7.017 3 13.873 4.875 20.75l.806 2.963c.9 4.383.9 4.383 3.069 8.099.234 1.849.413 3.705.563 5.563l.253 3.066L217 77h2l1 2.813c3.509 8.176 9.74 15.175 15.75 21.628C237 103 237 103 237 105h2c1.219 1.496 1.219 1.496 2.5 3.438 1.787 2.787 1.787 2.787 4.5 4.562l2 5 2 1c1.804 5.412 1.452 9.957-1.02 15.11L248 136l-1.137 2.266c-3.167 6.034-6.582 10.28-12.363 13.984-2.952 2.014-4.182 3.776-5.688 7-3.142 6.318-8.952 10.089-14.812 13.75h-2v3c-4.222 3-4.222 3-7 3l.313 2.188c-.441 3.964-2.416 5.185-5.313 7.812l-1.688 2.313L197 193h-2l-.723 1.637c-1.614 2.986-3.624 5.502-5.714 8.175-3.23 4.215-5.654 8.188-7.563 13.188-.955 1.586-1.914 3.169-2.875 4.75-5.234 9.385-7.542 20.682-9.125 31.25-2.349-3.687-2.217-6.836-2.16-11.137l.016-2.06c.017-2.164.049-4.327.082-6.49.027-2.175.052-4.349.07-6.523.019-1.965.046-3.93.074-5.894.253-2.79.253-2.79-1.082-3.896-1.369-5.306-2.29-10.504-2-16h-2l-.875-3.25c-1.104-4.12-1.104-4.12-3.125-7.75-3.042-1.292-3.042-1.292-6-2v-2l-2.313.563C147 186 147 186 144 185a124.617 124.617 0 0 0-4.688-.563l-2.449-.253L135 184l-1-3-1 4-2-1c1.406-20.45 3.264-40.274 9-60 .46-1.812.918-3.625 1.375-5.438 2.018-7.368 4.836-14.458 7.625-21.562.425-1.09.85-2.181 1.29-3.305 2.4-5.962 5.156-11.577 8.312-17.175 1.202-2.167 2.284-4.341 3.335-6.582C164.41 64.924 167.74 60.522 171 56c1.127-1.624 2.252-3.249 3.375-4.875a666.328 666.328 0 0 1 8.438-11.75l2.269-3.102L187 34h2l.719-2.2c1.48-3.235 3.245-5.13 5.781-7.613l2.406-2.394C200 20 200 20 202 20v-2Z"/><path fill="#03B030" d="M234 18c3.383.577 4.93 1.59 7.242 4.098l1.793 1.931 1.84 2.034 1.816 1.95c3.585 3.9 6.867 7.925 9.978 12.21 1.286 1.717 2.656 3.301 4.081 4.902 2.295 2.933 3.313 5.297 4.25 8.875h2c1.29 1.645 1.29 1.645 2.625 3.813l1.352 2.144C272 62 272 62 272 65h2c3.646 6.395 6.984 12.908 10.125 19.563l.982 2.07C299.2 116.766 307.857 150.59 307 184l13-1v2l-3.042.136c-3.737.17-7.473.36-11.21.554-1.614.081-3.23.158-4.844.23-2.327.103-4.652.225-6.978.35l-2.176.085c-6.093.357-9.245 1.993-13.313 6.458C266.87 210.695 270.774 237.614 271 258h-1l-.043-2.027C268.885 234.378 259.155 214.755 246 198l-2.082-2.68c-3.4-4.805-3.4-4.805-7.918-8.32v-2l-1.688-.688c-2.94-1.669-4.926-3.926-7.312-6.312a197.599 197.599 0 0 0-5-3l-3-3-13 11-1-4c4.75-3 4.75-3 7-3v-3c2.266-1.902 2.266-1.902 5.25-3.938 5.055-3.47 9.104-6.567 12.063-12 2.16-3.594 4.393-5.663 7.94-7.859 4.163-2.867 6.574-6.285 8.935-10.703l1.542-2.844c1.974-4.13 2.393-7.344 2.333-11.906l-.028-2.703L250 119l-4-2v-4l-3-1c-4-4.457-4-4.457-4-7h-2c-7.3-7.82-15.896-17.247-18-28h-2l-1-9c2 3 2 3 3 5 8.997-15.128 11.886-32.723 13.706-49.957C233 21 233 21 234 18Z"/><path fill="#016402" d="M307.25 305.063c3.82 2.69 7.527 5.542 10.75 8.937v2l4 1 1 6 3.938.688c5.27 1.145 9.509 3.492 14.062 6.312v2l1.71.38c2.43.658 4.616 1.541 6.923 2.546l2.695 1.166 2.797 1.22c6.917 3.008 13.856 5.926 20.875 8.688-6.044 10.365-14.444 18.962-25.516 23.828-2.8 1.321-5.232 2.938-7.796 4.672-5.92 3.838-12.031 6.231-18.688 8.5l-3.082 1.125c-29.757 10.181-64.098 5.444-91.962-8.12-1.92-1.02-1.92-1.02-4.956-3.005-.938-3.25-.938-3.25-1-6h2c1.206-2.332 2.165-4.496 3-7 5.465-5 5.465-5 8-5l1-3h2l.75-1.688c1.514-2.8 3.054-4.994 5.25-7.312l3.063-.813c3.013-.837 3.013-.837 3.812-2.976.46-1.438.912-2.878 1.355-4.32 1.158-2.845 3.09-3.55 5.77-4.891a281.771 281.771 0 0 0 5-5 373.076 373.076 0 0 1 5.293-4.508c1.592-1.392 3.058-2.84 4.52-4.367C276 314 276 314 278 314v-2c8.191-7.65 18.379-10.491 29.25-6.938Z"/><path fill="#636465" d="M112 435c6.818-.025 13.635-.043 20.453-.055 2.321-.005 4.642-.012 6.964-.02 3.328-.013 6.657-.018 9.985-.023l3.166-.015h2.912l2.577-.007C160 435 160 435 161 436a87.92 87.92 0 0 1 .316 4.91l.127 2.998.12 3.154.13 3.167c.107 2.59.209 5.18.307 7.771h-5l-.297-1.758c-1.03-5.38-2.48-8.838-5.703-13.242v-2c-4.322-.826-8.414-1.135-12.813-1.125l-3.457-.008c-2.643-.178-2.643-.178-3.73 1.133a103.516 103.516 0 0 0-.316 5.348l-.127 3.271-.12 3.443-.13 3.456c-.107 2.827-.209 5.654-.307 8.482 5.244-.995 5.244-.995 9.926-3.332 1.347-2.093 1.801-3.914 2.262-6.356l.48-2.449L143 451l5 1v31h-5l-.297-2.082-.453-2.73-.422-2.708c-1.048-3.14-1.906-3.946-4.828-5.48-3.653-.725-3.653-.725-7-1 .138 4.125.287 8.25.438 12.375l.119 3.563.127 3.398.11 3.142c.048 2.516.048 2.516 1.206 4.522 10.257.557 10.257.557 20-2 1.335-2.12 1.335-2.12 2-5 .671-1.528 1.36-3.048 2.063-4.563 1.283-2.795 2.276-5.43 2.937-8.437h4v25h-51v-4l7-2 1-55-8-1v-4Z"/><path fill="#656567" d="M336 435h49c2 19 2 19 2 23h-5c-.67-2.124-1.336-4.25-2-6.375l-1.125-3.586C378 445 378 445 378 443h-2v-2c-4.322-.826-8.414-1.135-12.813-1.125l-3.457-.008c-2.643-.178-2.643-.178-3.73 1.133a103.516 103.516 0 0 0-.316 5.348l-.127 3.271-.12 3.443-.13 3.456c-.107 2.827-.209 5.654-.307 8.482 1.461-.443 2.919-.897 4.375-1.355l2.46-.763c2.382-.78 2.382-.78 4.165-3.195 1.08-2.9 1.643-5.617 2-8.687h4v32h-4l-.297-1.828c-.688-3.677-1.28-6.545-3.39-9.672-3.027-1.963-5.769-2.07-9.313-2.5.138 4.313.287 8.625.438 12.938l.119 3.732.127 3.545.11 3.285c-.07 2.44-.07 2.44 1.206 3.5 7.645.676 13.89.94 20-4 4.054-4.73 5.457-10.085 7-16h4v25h-52v-4l3.438-.438c3.37-.174 3.37-.174 4.562-1.562.099-1.683.128-3.37.13-5.055l.009-3.266-.006-3.554.003-3.62c0-2.533-.001-5.065-.006-7.597-.005-3.891 0-7.782.007-11.674 0-2.453-.002-4.906-.004-7.359l.006-3.554-.01-3.266-.002-2.891c.115-2.144.115-2.144-1.127-3.164a235.648 235.648 0 0 0-7-1v-4Z"/><path fill="#646566" d="M308 434c6.505 1.956 11.336 6.36 15 12 1.506 2.94 2.781 5.931 4 9l1 2c.92 10.376 1.56 21.848-4 31l-1.938 3.375c-5.056 6.436-12.376 10.297-20.32 12.152-7.162.542-13.8-2.832-19.742-6.527-2.542-2.43-4.305-4.932-6-8l-1.75-3c-4.174-10.018-5.134-21.478-1.625-31.875 3.51-8.262 7.14-14.241 15.375-18.125 5.476-3.65 13.57-2.759 20-2Zm-17 7v2l-3 1c-1.212 2.22-1.212 2.22-2.125 4.875l-1.008 2.68c-1.97 5.554-2.086 10.21-2.117 16.07l-.063 2.91c-.049 9.05 1.762 16.18 7.313 23.465l1.227 1.633c3.983 3.07 10.037 1.975 14.773 1.367 5.163-3.227 7.939-9.366 10-15 .718-4.645.746-9.182.688-13.875l.083-3.605c-.023-8.703-1.99-15.217-6.771-22.52-3.28-3.138-5.63-4.196-10.063-4.438-3.902.434-5.914.982-8.937 3.438Z"/><path fill="#636466" d="m95 437 2-3h4c1.016 3.048 1.198 5.347 1.316 8.543l.127 3.252.12 3.392.13 3.428c.106 2.795.209 5.59.307 8.385h-5l-1.023-2.668-1.352-3.52-1.336-3.48L93 448l-1.043-2.852c-1.204-2.703-2.258-3.085-4.957-4.148l-3-2c-5.084-.583-6.989-.668-11.313 2.188-7.356 7.698-7.685 17.689-7.937 27.937.054 1.626.14 3.252.25 4.875l.172 3.184c.685 7.055 2.18 12.169 7.273 17.261C77.311 497.406 82.54 496.916 88 496c3.88-1.103 3.88-1.103 6.125-4.188L95 489l1.563-3.5c1.194-2.907 1.97-5.413 2.437-8.5h5c-.034 7.924-1.94 13.82-7 20-2.307 1.876-4.219 2.786-7 4l-2.375 1.25c-7.603 2.172-13.786.504-20.887-2.7C62.8 497.32 60.434 494.77 58 491l-1.207-1.758c-5.599-8.823-5.035-23.3-2.98-33.367 1.282-4.766 3.457-8.78 6.187-12.875h2l.938-1.875c1.762-3.525 2.778-4.975 6.574-6.516C78.044 432.52 87.136 433.15 95 437Z"/><path fill="#67696A" d="M168 435h29v4l-3.438.438c-3.37.174-3.37.174-4.562 1.562a87.526 87.526 0 0 0-.13 5.055l-.009 3.266.006 3.554-.003 3.62c0 2.533.001 5.065.006 7.597.005 3.891 0 7.782-.007 11.674 0 2.453.002 4.906.004 7.359l-.006 3.554.01 3.266.002 2.891c-.115 2.144-.115 2.144 1.127 3.164 9.713.922 9.713.922 18.57-2.402 4.413-4.931 6.9-12.072 7.43-18.598l5-1c.152 9.08-.393 17.897-1 27h-52v-4l6.152-.586L176 496c1.26-2.52 1.127-4.256 1.13-7.076l.009-3.206-.006-3.472.003-3.549c0-2.479-.001-4.958-.006-7.437-.005-3.81 0-7.62.007-11.43 0-2.403-.002-4.806-.004-7.209l.006-3.478-.01-3.196-.002-2.828c.11-2.104.11-2.104-1.127-3.119a69.603 69.603 0 0 0-4.063-.563L168 439v-4Z"/><path fill="#646566" d="M238 435h28v4l-7 2-.025 1.789c-.086 6.148-.185 12.296-.292 18.444-.039 2.294-.074 4.588-.105 6.882-.046 3.3-.104 6.598-.164 9.897l-.035 3.103-.06 2.911-.04 2.55c-.645 5.612-3.062 8.782-7.279 12.424-5.311 3.667-10.757 3.915-17 3-4.673-1.64-7.997-3.724-11.063-7.625-1.346-4.847-1.779-9.392-.937-14.375 2.438-3.125 2.438-3.125 5-5l1-1c2.813-.375 2.813-.375 6 0 2.438 2 2.438 2 4 5 .183 2.99-.265 5.012-1 8-3 2-3 2-7 2 .575 3.93.575 3.93 3 7 3.055.56 5.944.55 9 0 2.768-2.63 4.866-5.216 5.158-9.1l.047-2.625.06-2.972.051-3.217.063-3.287c.066-3.475.125-6.95.184-10.424l.13-7.055c.108-5.773.209-11.546.307-17.32l-10-1v-4Z"/><path fill="#1F1F1F" d="M278 511h8c3.92 4.193 6.174 9.1 8.594 14.277 1.91 3.7 4.2 7.192 6.406 10.723l1-25h6v39c-7 0-7 0-8.637-1.285l-1.05-1.778-1.204-1.953L296 543l-1.938-3.313L292 536l-6-10-1 24h-7v-39Z"/><path fill="#202020" d="M194 511c19.968 0 19.968 0 27.438 5.938 3.912 5.165 2.88 12.901 2.562 19.062-1.025 5.123-3.097 7.573-7 11-6.86 4.574-14.982 3-23 3v-39Zm7 7v25c7.547.402 7.547.402 13-3 3.187-3.736 3.466-7.114 3.285-11.852-.555-4.18-2.3-6.331-5.472-8.96C208.28 517.48 208.28 517.48 201 518Z"/><path fill="#2C2C2C" d="M51 511c18.176 0 18.176 0 23 4 1.244 2.488 1.133 4.227 1.125 7l.008 2.688C75 527 75 527 74 529h-2v2l-2 2 2.25 3C79 545.442 79 545.442 79 550c-4.923 1.143-4.923 1.143-8 0-2.013-2.627-3.603-5.185-5.121-8.112-2.307-4.382-3.3-5.14-7.879-7.888v16h-7v-39Zm7 7v10c4.68.4 4.68.4 8.938-1.188 1.44-2.457 1.493-4.014 1.062-6.812-3.644-2.43-5.712-2.162-10-2Z"/><path fill="#292929" d="M369 511h21v7h-13v9h11v7h-11v9l2.809-.035 3.628-.028 3.622-.035C390 543 390 543 391 544c.125 2.5.125 2.5 0 5-1 1-1 1-3.041 1.114l-2.65-.016-2.577-.008-3.295-.028L369 550v-39Z"/><path fill="#212121" d="M93 511h21v7h-14v9h12v7h-12v9h14v7H93v-39Z"/><path fill="#2B2B2B" d="M241 511h20v7h-13v9h12v7h-12v9h14v7h-21v-39Z"/><path fill="#252525" d="m140.371 510.863 2.129.012 2.129-.012c5.244.01 5.244.01 6.371 1.137.04 2.333.042 4.667 0 7l-2.266-.254-2.984-.308-2.953-.317c-2.56-.11-4.378.102-6.797.879l1 6 2.5.625c4.646 1.825 10.186 4.746 12.5 9.375.468 4.407.778 8.517-1.313 12.5-5.058 2.824-10.673 4.11-16.406 2.95-2.154-.72-4.218-1.502-6.281-2.45v-7a58.06 58.06 0 0 1 8.5 2.188c3.79.88 5.153.638 8.5-1.188l-1.5-2.375C142 537 142 537 142 535l-2.625-.688c-4.752-1.848-8.197-4.315-10.813-8.75-.726-3.31-.576-5.317.438-8.562 2.5-2.813 2.5-2.813 5-5 1.756-1.756 4.036-1.132 6.371-1.137Z"/><path fill="#282828" d="m351 511 2 1v7l-2.195-.324c-7.86-1.053-7.86-1.053-14.805 2.324-2.955 4.136-3.526 7.92-3.36 12.883.547 3.22 2.023 4.914 4.36 7.117 5.018 3.345 10.29 2.114 16 1v6c-5.339 3.337-11.147 3.466-17.125 2.188-5.12-1.763-7.427-4.479-9.875-9.235-2.248-6.64-2.26-13.888.5-20.39 5.992-9.732 13.595-10.694 24.5-9.563Z"/><path fill="#686969" d="M308 434c7.387 2.221 12.55 7.57 16.219 14.203 2.186 4.591 3.35 8.738 3.781 13.797-2.24-2.88-4.162-5.849-6-9-2.067 1.162-2.067 1.162-4 3-.64 2.402-.64 2.402-.61 5.105l-.097 2.979-.043 3.103-.09 3.14c-.07 2.557-.123 5.114-.16 7.673h-1l.003-2.013c.514-18.11.514-18.11-7.003-33.987-4.635-3.356-7.432-3.442-13-3-4.589 1.402-6.973 5.239-9.313 9.25-2.532 2.626-5.148 2.377-8.687 2.75-2.336.956-2.336.956-4 2 1.513-5.638 3.916-10.81 8.777-14.262 1.709-.971 3.465-1.859 5.223-2.738 5.476-3.65 13.57-2.759 20-2Z"/><path fill="#686A6A" d="m95 437 2-3h4c1.016 3.048 1.198 5.347 1.316 8.543l.127 3.252.12 3.392.13 3.428c.106 2.795.209 5.59.307 8.385h-5l-1.023-2.668-1.352-3.52-1.336-3.48L93 448l-1.043-2.852c-1.204-2.703-2.258-3.085-4.957-4.148l-3-2c-5.084-.583-6.989-.668-11.313 2.188-2.43 2.542-4.092 4.702-5.687 7.812l-1.188 2.313L65 453l-1-5c-2.892-1.333-2.892-1.333-5.188-.063L57 449l3-6h2l.938-1.875c1.762-3.525 2.778-4.975 6.574-6.516C78.044 432.52 87.136 433.15 95 437Z"/><path fill="#565759" d="M319 452c1.75.125 1.75.125 4 1 5.987 7.868 5.5 15.573 5 25-.561 3.406-1.163 5-3 8-3.188 1-3.188 1-6 1v2h-2v2h-2a535.423 535.423 0 0 1-.063-4.25l-.035-2.39c.098-2.36.098-2.36.59-4.187.58-2.481.669-4.759.719-7.306l.086-2.941c.052-2.042.096-4.083.133-6.125l.093-2.934.06-2.684L317 456l3-2-1-2Z"/><path fill="#6F7170" d="M283 479c1.263 2.428 2.318 4.817 3.313 7.375 2.381 5.618 2.381 5.618 6.687 9.625 4.42.736 8.598.866 13 0 2.995-2.348 4.653-4.828 6.25-8.25l1.016-2.14L314 484c1.063 1.813 1.063 1.813 2 4l-1 3h2v-2h2v-2l5-1c-1.28 5.97-4.093 8.726-9 12-6.367 3.659-12.598 6.645-20 5-7.9-2.677-14.123-5.39-18-13v-3h5l1-8Z"/><path fill="#616264" d="M230.813 473.625C234 474 234 474 236.438 476c2.217 4.258 1.702 6.365.562 11-3 2-3 2-7 2 .575 3.93.575 3.93 3 7 2.106.319 2.106.319 4.438.25l2.37.016c2.482-.134 2.482-.134 5.192-2.266l-1 5h-2v2l3 1c-7.866.662-13.718.08-20-5-3.44-4.379-3.559-9.026-3.434-14.434.634-3.75 2.433-5.37 5.434-7.566 1-1 1-1 3.813-1.375Z"/><path fill="#676968" d="M99 477h5c-.034 7.924-1.94 13.82-7 20-2.307 1.876-4.219 2.786-7 4l-2.375 1.25c-8.554 2.444-15.988-.02-23.625-4.25l-2-3 7-1 1-3 1.688 2.5c2.946 2.997 5.73 2.896 9.812 2.938 4.275-.085 7.667-.473 11.5-2.438 1.228-2.233 1.228-2.233 2-5l1.563-3.5c1.194-2.907 1.97-5.413 2.437-8.5Z"/><path fill="#2F2F2F" d="M168 511h7v39h-6c-1-1-1-1-1.114-4.602a782 782 0 0 1 .016-4.808l.005-2.552c.005-2.7.018-5.4.03-8.1A6387.782 6387.782 0 0 1 168 511Z"/><path fill="#626363" d="M339 435h46c2 19 2 19 2 23h-5c-.67-2.124-1.336-4.25-2-6.375l-1.125-3.586C378 445 378 445 378 443h-2v-2l-18-2v-3h-19v-1Z"/><path fill="#747575" d="m143 451 5 1v31h-5l-.297-2.047C141.63 474.04 141.63 474.04 137 469h2v-4l-3-1 2.375-1.438c3.556-3.47 3.938-6.767 4.625-11.562Z"/><path fill="#6D6E6F" d="M368 451h4v32h-4l-.297-1.793c-.96-5.077-2.002-8.382-5.703-12.207h3l-1-4-4-1 2.875-1.438c3.077-1.995 3.74-3.765 4.5-7.312.232-1.413.449-2.829.625-4.25Z"/><path fill="#676868" d="M314 484c1.063 1.813 1.063 1.813 2 4l-1 3h2v-2h2v-2l5-1c-1.455 6.789-5.402 9.54-10.852 13.266-5.58 3.26-10.816 3.153-17.148 2.734l2-1 1-3c1.89-.668 1.89-.668 4.25-1.188 4.83-1.438 6.51-3.537 8.875-7.875.98-2.081.98-2.081 1.875-4.937Z"/><path fill="#5D5E60" d="M122 489c2.211.428 3.981.99 6 2l2 3c2.77 2.77 4.765 2.398 8.625 2.625l3.602.227L145 497v3h-32v-3l8-2-.063-2.438C121 490 121 490 122 489Z"/><path fill="#737475" d="M315 438c6.759 5.388 10.573 10.641 13 19 .188 3 .188 3 0 5-2.24-2.88-4.162-5.849-6-9-2.067 1.162-2.067 1.162-4 3-.64 2.402-.64 2.402-.61 5.105l-.097 2.979-.043 3.103-.09 3.14c-.07 2.557-.123 5.114-.16 7.673h-1l-.06-2.092c-.096-3.157-.205-6.314-.315-9.47-.03-1.087-.062-2.173-.094-3.292-.208-5.715-.623-10.741-2.531-16.146l3-2-1.063-2.375L314 440l1-2Z"/><path fill="#7F7F80" d="M384 476h4v25h-52l1-4v3h50l-2-10-6 1 5-15Z"/><path fill="#5E5F60" d="m321 472 1 2c2.075 1.224 2.075 1.224 5 1 1.28 3.839.538 5.594-.898 9.258C325 486 325 486 321.812 487H319v2h-2v2h-2c-.402-6.429.227-11.146 3-17l3-2Z"/><path fill="#6D6D6D" d="m223 486 3 3 3-1 .875 2.875c.893 3.177.893 3.177 3.125 5.125 2.106.319 2.106.319 4.438.25l2.37.016c2.482-.134 2.482-.134 5.192-2.266l-1 5h-2v2l3 1c-7.83.659-13.765.11-20-5-2.344-3.309-3.125-4.85-2.688-8.875L223 486Z"/><path fill="#575859" d="M349 492c2.688.313 2.688.313 5 1v3l15 1-1 3h-31v-3l1.863-.332 2.45-.48 2.425-.458c2.521-.814 3.446-1.873 5.262-3.73Z"/><path fill="#276931" d="M190 383c-17.935 9.84-47.125 7.695-66.457 3.195-2.207-.648-4.383-1.403-6.543-2.195v-1c5.004.412 9.852.943 14.75 2.063 12.96 2.427 26.828 1.246 39.875.062l2.673-.237 2.491-.255 2.178-.222c2.108-.332 2.108-.332 4.124-1.474 2.596-1.274 4.191-.692 6.909.063Z"/><path fill="#0C7D0B" d="M264 310h1c.193 4.824-.243 8.496-2 13l4-3 2 1-1.574 1.355c-4.786 4.148-4.786 4.148-9.301 8.582C256 333 256 333 254 333l-.313 3.875c-.175 2.18-.175 2.18-.687 4.125-3 2-3 2-6 2 1.645-3.5 3.672-6.68 5.75-9.938 4.562-7.273 8.527-14.894 11.25-23.062Z"/><path fill="#478822" d="M173 307h1l.625 3.313C176.044 316.06 179.084 320.9 182 326c1.566 3.025 2.925 5.775 4 9-4.284-.476-6.26-2.839-9-6-1.67-2.983-2.92-5.76-4-9l-2-1c-.286-8.571-.286-8.571 2-12Z"/><path fill="#338216" d="M150.999 303.73c4.937 2.428 9.36 5.555 13.169 9.536 1.775 2.078 1.775 2.078 4.832 1.734l.312 1.937L170 319l3 1c3 3.444 3 3.444 3 6-3.974-1.622-6.756-4.397-9.813-7.313-8.982-8.358-17.056-14.397-29.886-14.058-3.559.574-5.512 2.14-8.301 4.371h-2v-2h2v-2c5.952-3.803 16.432-3.667 22.999-1.27Z"/><path fill="#777877" d="M160 436h1l1 22h-5l-.297-1.723c-1.066-5.506-2.686-9.55-5.703-14.277 2.333-.042 4.667-.04 7 0l1 1 1-7Z"/><path fill="#20AA18" d="M227 91c2.25 0 2.25 0 5 1 1.27 1.997 2.19 4.007 3.105 6.188.759 1.996.759 1.996 2.895 2.812v2l1.813.625C242 105 242 105 243.438 107.938c1.788 3.504 3.222 4.178 6.562 6.062 2.503 3.57 2.204 7.004 2.125 11.25l-.055 3.828L252 132l-2 1v-14l-4-2v-4l-3-1c-4-4.457-4-4.457-4-7h-2a104.582 104.582 0 0 1-4.563-5.313l-2.44-2.988C228 94 228 94 227 91Z"/><path fill="#448448" d="M322 383c-17.205 9.158-43.295 7.449-62 4v-1l3.469.016c4.27.018 8.54.03 12.81.039 1.843.005 3.687.012 5.53.02 2.659.013 5.318.018 7.976.023l2.476.015c6.04 0 11.853-.455 17.676-2.175 4.106-1.085 7.83-1.09 12.063-.938Z"/><path fill="#669245" d="M166 256h2l-.048 1.718c-.304 12.754.294 24.82 2.684 37.36.499 2.634.933 5.277 1.364 7.922-3.833-2.556-3.833-2.556-5-6-.234-2.922-.188-5.821-.125-8.75l.027-2.402c.024-1.95.06-3.899.098-5.848h-2c-.027-3.063-.047-6.125-.063-9.188l-.025-2.619c-.016-4.196.012-8.102 1.088-12.193Z"/><path fill="#699846" d="M49 149c5.428 2.042 8.904 4.904 13 9H51v19h-1c-1.058-6.009-1.117-11.846-1.063-17.938l.014-2.939c.012-2.374.028-4.749.049-7.123Z"/><path fill="#707170" d="M234 474c2.438 2 2.438 2 4 5 .127 2.936-.319 5.08-1 8l-2 1c-3-4.75-3-4.75-3-7h-2l-1-4-1.875 1.5C225 480 225 480 223 480c2.3-5.309 5.253-6.821 11-6Z"/><path fill="#398D3A" d="M353 272h4c-1.26 3.489-2.725 6.088-5 9l-1.21 2.105c-2.424 3.92-5.194 7.539-7.978 11.207l-1.693 2.245c-1.37 1.816-2.744 3.63-4.119 5.443l-2-1v-3h3v-2h2l1-6h2v-2h3l1-6 3-1 .375-2.875C351 275 351 275 353 273v-1Z"/><path fill="#767776" d="M69 491c4.688 3.516 4.688 3.516 6 5v4h2v2h8v1c-7.89.658-14.06-1.156-21-5l-2-3 7-1v-3Z"/><path fill="#248027" d="M390 149c.185 19.005.185 19.005-1 27-2.067-3.1-2.245-3.73-2.195-7.23l.02-2.432.05-2.525.027-2.561c.024-2.084.06-4.168.098-6.252l-6 1v2l-4-1c1.787-1.34 3.58-2.671 5.375-4l3.023-2.25C388 149 388 149 390 149Z"/><path fill="#4C4E4D" d="M339 435h45v1l-3.027.148-3.91.227c-1.288.07-2.576.14-3.903.21-1.043.138-2.086.274-3.16.415l-1 2h-11v-3h-19v-1Z"/><path fill="#2AAA22" d="M222 66h1c.083 4.833-.047 9.237-1 14h2l2 7h2v4h-2c-3.966-4.145-6.707-8.14-7-14h-2l-1-9c2 3 2 3 3 5l3-7Z"/><path fill="#565758" d="M93 497c-1.659 2.288-2.623 3.565-5 5-3.703.442-7.288.293-11 0v-2h-2v-3c2.062-.196 4.124-.382 6.188-.563l3.48-.316c3.018-.11 5.421.139 8.332.879Z"/><path fill="#6F7070" d="M308 435c2.813.438 2.813.438 6 2 1.444 2.894 2.263 5.858 3 9l-5 1-1.125-2.25c-2.199-3.225-4.555-4.758-7.875-6.75 3-1 3-1 5-1v-2Z"/><path fill="#757676" d="m65 437 3 1-.563 2.188c-.607 2.771-.607 2.771.126 5.312.541 3.097-.21 4.716-1.563 7.5h-1l-1-5c-2.892-1.333-2.892-1.333-5.188-.063L57 449l3-6h2l.938-1.875L65 437Z"/><path fill="#797979" d="m87 435 1.68.508 2.195.617 2.18.633L95 437l2-2v2l2 1-1.938 1.375c-2.159 1.464-2.159 1.464-3.062 3.625l-2 3-1-3a89.261 89.261 0 0 0-4-2c-1.75-1.625-1.75-1.625-3-3h2l1-3Z"/><path fill="#4C4E4E" d="M113 435h34c-3.698 3.698-5.962 3.868-11 4-2.5-.438-2.5-.438-4-1v-2h-15v2h-4v-3Z"/><path fill="#60AD44" d="m224 164 2 1-1.563 1.063c-1.838 2.032-1.838 2.032-1.125 5.625L224 175h-2l-3-3-13 11-1-4c4.75-3 4.75-3 7-3v-3c2.371-2.008 2.371-2.008 5.438-4.125l3.058-2.133L223 165l1-1Z"/><path fill="#14AC21" d="M249 133c1 3 1 3 .18 5.086-2.638 4.628-5.232 8.27-9.18 11.914l-1.938 2.5c-2.439 2.957-5.065 5.116-8.062 7.5l-2-1c2.55-4.385 4.947-6.989 9.219-9.727 4.233-3.026 6.632-6.443 9.031-11.023l1.578-2.984L249 133Z"/><path fill="#629340" d="M85 278c3.328.574 4.698 1.594 7 4h2v6l1.875.75c2.54 1.494 3.224 2.465 4.125 5.25-.375 2.25-.375 2.25-1 4-1.5-1.375-1.5-1.375-3-3v-2h-2l-1.25-2.688c-1.658-3.137-3.517-5.574-5.75-8.312-.709-1.311-1.395-2.638-2-4Z"/><path fill="#35B253" d="M290 99c2.696 5.084 4.308 10.556 6.125 16l1.129 3.313 1.066 3.187.977 2.906C300 127 300 127 300 131h-2l-.805-2.633-1.07-3.492-1.055-3.445c-1.73-5.9-1.73-5.9-4.187-11.508-1.083-2.357-1.084-4.093-1.008-6.672l.055-2.422L290 99Z"/><path fill="#2DAF53" d="M264 227h2l1 5h2c1.99 5.772 2.245 10.862 2.125 16.938l-.027 2.65A909.43 909.43 0 0 1 271 258h-1l-.043-2.027c-.412-8.295-2.419-15.62-4.898-23.48C264 229 264 229 264 227Z"/><path fill="#737375" d="M314 484c1.063 1.813 1.063 1.813 2 4l-1 3h2v-2h2v-2l5-1c-1.24 4.957-2.786 7.117-7 10l-1.313-1.438c-1.71-1.799-1.71-1.799-4.687-2.562l.938-2.313A110.556 110.556 0 0 0 314 484Z"/><path fill="#848584" d="M221 474v9l-2.438.375L216 484l-1 2 2 1h-2v2c-2 1.625-2 1.625-4 3 .537-2.687 1.376-4.845 2.5-7.375 1.61-3.507 1.61-3.507 2.063-7L216 475c2-1 2-1 5-1Z"/><path fill="#6AAD47" d="M166 64c.625 1.813.625 1.813 1 4l-2 3a128.213 128.213 0 0 0-1 7h-4l-.875 2.313C158 83 158 83 156 86l-2-1 1.172-2.125c2.439-4.444 4.861-8.878 7.078-13.438C164 66 164 66 166 64Z"/><path fill="#408040" d="m245 343 2 1c.625 2.063.625 2.063 1 4-1.787 1.34-3.58 2.671-5.375 4l-3.023 2.25C237 356 237 356 235 356l-.688 1.938C233 360 233 360 230.375 360.75L228 361c4.625-4.875 4.625-4.875 8-6l1-3h2l.75-1.688c1.466-2.712 3.28-4.948 5.25-7.312Z"/><path fill="#5BA63A" d="M173 227h1c-.614 8.599-2.81 16.695-5 25-2.026-3.35-2.217-5.87-2.125-9.75l.055-2.984L167 237l3-1c1.023-2.097 1.023-2.097 1.688-4.563.25-.826.502-1.652.761-2.503L173 227Z"/><path fill="#55A735" d="M193 27c1.125 3.75 1.125 3.75 0 6h-3l-1 6-4 1v2h-2l-2 5-3-1c1.45-2.006 2.91-4.005 4.375-6l1.25-1.734c1.077-1.46 2.222-2.867 3.375-4.266h2l.875-2.375C191 29 191 29 193 27Z"/><path fill="#4C8355" d="M117 383c5.143.424 10.186.992 15.25 2 6.538 1.257 13.112 1.632 19.75 2v2c-2.98-.115-5.958-.242-8.938-.375l-2.517-.094C132.363 388.15 124.82 386.33 117 384v-1Z"/><path fill="#4FB96E" d="M232 29h1c.38 6.636-.12 12.97-1.25 19.5l-.331 2.104c-.608 3.25-1.076 5.076-3.528 7.365L226 59l.805-3.008c2.348-8.969 4.1-17.772 5.195-26.992Z"/><path fill="#4CA422" d="m177 47 5 1c-.506 2.169-1 4-2 6l-2.438.438c-2.906.327-2.906.327-4.562 3.562h-2c1.45-4.11 3.511-7.433 6-11Z"/><path fill="#3A903A" d="m367 164 2 1c-2.433 2.945-4.324 3.323-8 4l-1 2h-2l-1 3c-3.974 2.22-7.521 2.176-12 2 4.488-2.992 9.248-5.456 14-8l2.43-1.316c1.824-.96 3.694-1.831 5.57-2.684Z"/><path fill="#70B252" d="M147 103c1.206 4.288.74 7.172-.938 11.313-.917 2.321-1.507 4.452-2.062 6.874-1 3.813-1 3.813-3 5.813-2.46-7.382 3.073-17.15 6-24Z"/><path fill="#525252" d="M128 541c2.375.25 2.375.25 5 1 1.313 2.063 1.313 2.063 2 4l-2 3 7 1c-3.479 1.16-4.342.775-7.688-.438l-2.449-.87L128 548v-7Z"/><path fill="#7A7A7C" d="m223 486 3 3 3-1 2 7-2 1-2-1v2h-2c-3.077-5.292-3.077-5.292-2.688-8.875L223 486Z"/><path fill="#7B7B7C" d="M368 451h4v23h-1l-1-15h-2v-8Z"/><path fill="#929495" d="m315 448 4 2v3l2 1-3 2c-.508 2.318-.508 2.318-.512 5.008l-.107 2.988-.068 3.129-.104 3.152A782.467 782.467 0 0 0 317 478h-1l-1-30Z"/><path fill="#545555" d="M239 435h27v4l-9-1v-2h-17l-1 2v-3Z"/><path fill="#4B964A" d="M372 235c1.2 1.508 1.2 1.508 2 4a65.918 65.918 0 0 1-3.188 7.875l-.962 2.105c-1.865 4.05-3.836 8.043-5.85 12.02h-1c-.201-3.625.142-5.865 2-9h2l1-6h2l.438-3.813c.3-2.614.72-4.661 1.562-7.187Z"/><path fill="#72AB56" d="M202 18h2c1.354 2.709 1.065 5.01 1 8l-11 1c4.492-5.469 4.492-5.469 6-7h2v-2Z"/><path fill="#3E9910" d="M133 176h1l1 8 2.703-.035 3.547-.028 3.516-.035c2.644.08 4.732.312 7.234 1.098v2c-2.98-.14-5.958-.287-8.938-.438l-2.576-.119-2.45-.127-2.27-.11C134 186 134 186 133 185a74.456 74.456 0 0 1-.063-4.563l.028-2.503L133 176Z"/><path fill="#56B972" d="M234 18c3.6.556 5 1.749 7.25 4.563l1.578 1.94L244 26l-2 1v-2l-2.375-.938C237 23 237 23 235 22v6l-2 1c-.125-7.625-.125-7.625 1-11Z"/><path fill="#3BB25A" d="m232 182 5 1v2l7 1c.688 1.813.688 1.813 1 4-1.438 1.75-1.438 1.75-3 3l-1.875-2.438c-1.867-2.6-1.867-2.6-4.125-3.562v-2l-4-2v-1Z"/><path fill="#535456" d="m135.723 496.902 3.34.036 3.347.027L145 497v3h-22v-1c.957-.09.957-.09 1.934-.184l2.504-.253 2.496-.247c2.769-.424 2.765-1.305 5.789-1.414Z"/><path fill="#2F7234" d="M112 312c2.962.613 4.38 1.254 7 3h-2l.25 2.813c-.25 3.187-.25 3.187-2 5.125-2.25 1.062-2.25 1.062-4.5.75L109 323l1.875-.75c2.202-1.124 2.202-1.124 3.563-3.063.858-2.347.858-2.347-.813-4.937L112 312Z"/><path fill="#18B13F" d="M300 131h1c1.069 6.238 1.046 10.97-1 17l-2 1-2-2c.375-2.625.375-2.625 1-5h2l-1-3h2v-8Z"/><path fill="#7B7C7D" d="M100 491c-1.555 3.817-4.036 6.192-7 9l-3-1 2-2-2-2 3-1 1-2c3-1 3-1 6-1Z"/><path fill="#535454" d="m178 495 1 3 6 1v1h-16v-3l9-2Z"/><path fill="#7E7F81" d="M322 446c4.131 3.726 5.844 8.5 6.188 14l-.188 2c-1.673-2.151-3.146-4.255-4.5-6.625-1.431-2.623-1.431-2.623-4.5-4.375h2l1-5Z"/><path fill="#626463" d="M77 434h10l-1 4H76l1-4Z"/><path fill="#5E9136" d="M173 307h1l.875 3.625A116.588 116.588 0 0 0 178 321a101.168 101.168 0 0 1-6-2c-1.39-2.78-1.185-4.919-1-8 1-2.375 1-2.375 2-4Z"/><path fill="#626365" d="M93 497c-2.313 2.5-2.313 2.5-5 5h-3v-2l-3-1 1-2c3.647-1.114 6.333-.943 10 0Z"/><path fill="#3B7945" d="m201 352 1.32 1.137A871.47 871.47 0 0 0 214 363l-2 2v-2l-2.313-.25c-3.284-.917-3.786-2.022-5.687-4.75-2.083-1.252-2.083-1.252-4-2l1-4Z"/><path fill="#32B355" d="M259 45c3.923 2.354 4.839 4.645 6 9h2v2h-3v-2l-6-1v-2h2l-1-6Z"/><path fill="#949594" d="M293 497h10l-4 2-1 2 6 1v1c-1.437.027-2.875.046-4.313.063l-2.425.035C295 503 295 503 292 502v-2l2-1-1-2Z"/><path fill="#565758" d="m61 446 4 2v5l-3 1-1-3h-4c1-3 1-3 4-5Z"/><path fill="#3D843D" d="M322 383c-3.202 1.762-6.336 2.734-9.875 3.625-1.008.26-2.016.52-3.055.79-3.1.59-5.922.688-9.07.585v-1c14.597-4.592 14.597-4.592 22-4Z"/><path fill="#629662" d="M227 361c0 3 0 3-2 6h-2l1 5c-2.938-.75-2.938-.75-6-2-.875-2.125-.875-2.125-1-4l2.188-.25c3.365-.898 5.228-2.461 7.812-4.75Z"/><path fill="#15AD1C" d="M247 112c4.964 4.804 4.964 4.804 5.098 9.258l-.036 3.867-.027 3.883L252 132l-2 1 .105-2.195c.165-5.866-.076-9.63-3.105-14.805v-4Z"/><path fill="#68AD46" d="m153 87 2 2c-.445 3.248-1.83 6.228-3.063 9.25l-1.097 2.703L150 103h-2c.606-5.76 2.757-10.72 5-16Z"/><path fill="#777" d="M385 441h1l1 17h-5v-6l2 1 1-12Z"/><path fill="#407F4C" d="m203.188 375.875 2.73.055L208 376c-2.035 2.035-3.234 2.638-5.875 3.625l-2.055.79C198 381 198 381 194 381c1.674-5.023 4.378-5.25 9.188-5.125Z"/><path fill="#458A46" d="m255 329 1 4h-2l-.313 3.875c-.175 2.18-.175 2.18-.687 4.125-3 2-3 2-6 2 1.538-3.196 3.289-6.216 5.125-9.25l1.633-2.703L255 329Z"/><path fill="#5E9038" d="m71 250 1 2 2 1 1 2h3c.125 3.375.125 3.375 0 7l-2 2c-.84-1.768-1.672-3.54-2.5-5.313l-1.406-2.988C71 253 71 253 71 250Z"/><path fill="#60A73B" d="M184 205h2l-.813 1.563c-.956 1.962-1.808 3.975-2.625 6-1.32 2.905-2.14 4.477-4.562 6.437v-4h2l-.563-2.375C179 210 179 210 180 208h3l1-3Z"/><path fill="#6AB04D" d="M139 127h1c.202 6.36-.372 11.852-2 18h-2c.483-6.205 1.333-12 3-18Z"/><path fill="#6DAB54" d="M207 39c1.945 3.521 3.057 7.148 4.188 11l1.105 3.688c.65 3.04.82 4.477-.293 7.312l-.84-2.59-1.097-3.347-1.09-3.34c-.712-2.604-.712-2.604-1.973-3.723a74.456 74.456 0 0 1-.063-4.563l.028-2.503L207 39Z"/><path fill="#8D8D8D" d="M261.063 437.938 264 438c-3 2-3 2-5 3l-1 21h-1c-.029-3.812-.047-7.625-.063-11.438l-.025-3.298-.01-3.135-.016-2.904c.178-3.485.613-3.215 4.176-3.288Z"/><path fill="#448444" d="M351 337c5.54.568 10.037 2.629 15 5v1a978.719 978.719 0 0 1-4.25-.438l-2.39-.246c-2.184-.292-4.237-.737-6.36-1.316v-2h-2v-2Z"/><path fill="#337835" d="M322 317c3.361 1.12 4.575 2.497 7 5l2 1-1 2c-3.044.082-5.072-.024-8-1v-7Z"/><path fill="#6E9C4C" d="M91 175c6.005.65 11.4 2.858 17 5v1c-3.891 1.02-5.606 1.168-9.375-.438-.866-.515-1.733-1.03-2.625-1.562v-2h-5v-2Z"/><path fill="#505152" d="M184 435h13v3l-9 1v-3l-4-1Z"/><path fill="#348F31" d="m333 301 3 2c-1.375 2-1.375 2-3 4h-2l-2 4c-.934-3.01-1.044-3.867 0-7 2.063-1.688 2.063-1.688 4-3Z"/><path fill="#6C964B" d="M53 193h2l.148 1.906C55.634 200.47 56.506 205.62 58 211h-2c-1.846-3.984-2.36-7.444-2.625-11.813l-.227-3.519L53 193Z"/><path fill="#0E650B" d="m130 306 2 1a90.488 90.488 0 0 1-4 4h-2l-.75 1.813c-1.414 2.473-2.9 3.62-5.25 5.187 0-3 0-3 2.188-5.262l2.812-2.425 2.813-2.45L130 306Z"/><path fill="#37B266" d="M295 117h2a646.822 646.822 0 0 1 1.5 4.75l.844 2.672C300 127 300 127 300 131h-2c-3.444-9.41-3.444-9.41-3-14Z"/><path fill="#44833E" d="m364 354 5 1c-3.17 3.26-6.4 6.222-10 9 .25-1.875.25-1.875 1-4 2.063-1.25 2.063-1.25 4-2v-4Z"/><path fill="#737373" d="m147 435 3 1v4l-13-1v-1l3.313-.375c3.76-.38 3.76-.38 6.687-2.625Z"/><path fill="#296635" d="m215 365 4 4a700.574 700.574 0 0 1-3.813 2.938l-2.144 1.652C211 375 211 375 208 376c1.251-3.754 2.565-4.24 6-6h2l-1-5Z"/><path fill="#418043" d="m230 371 .688 1.875c1.691 2.74 3.304 3.175 6.312 4.125-2.655 1.017-3.692 1.13-6.36.004l-2.39-1.442-2.422-1.433L224 373c3.75-2 3.75-2 6-2Z"/><path fill="#2B6B2F" d="m372 345 4 1-6 9-1-4h2c-.03-1.207-.03-1.207-.063-2.438C371 346 371 346 372 345Z"/><path fill="#529D51" d="M345 177h-2v2a310.5 310.5 0 0 1-4.25 1.063l-2.39.597c-2.464.355-4.016.109-6.36-.66 1.745-.7 3.496-1.385 5.25-2.063l2.953-1.16c2.837-.788 4.091-.801 6.797.223Z"/><path fill="#545655" d="m305 498-1 4h-8l2-1 1-3c2.575-.997 3.49-1.255 6 0Z"/><path fill="#50875D" d="M190 383c-5.407 3.028-10.822 4.301-17 4 5.033-3.355 10.99-6.133 17-4Z"/><path fill="#73BF80" d="M268 240h3v18h-1l-.184-2.414c-.613-7.83-.613-7.83-1.816-15.586Z"/><path fill="#00910F" d="M291 186c-1.736 1.158-3.498 2.282-5.313 3.313-3.167 1.988-5.853 4.249-8.687 6.687 2.688-6.599 6.993-10.184 14-10Z"/><path fill="#676867" d="M288 495c2.375.25 2.375.25 5 1 1.313 2.063 1.313 2.063 2 4-4.75 1.125-4.75 1.125-7 0v-5Z"/><path fill="#595B5A" d="m64 490 5 1v3c-2.375 1.063-2.375 1.063-5 2l-2-1 2-5Z"/><path fill="#757676" d="m336 435 8 1v3h-8v-4Z"/><path fill="#7B7C7B" d="M129 436h3v2l4 1-2.438.625L131 441c-.898 3.053-.898 3.053-1 6h-1c-1.125-7.625-1.125-7.625 0-11Z"/><path fill="#2F7139" d="M91 370c3.523-.403 4.8-.134 7.813 1.875L101 374v2c-4.43-1.208-6.981-2.517-10-6Z"/><path fill="#4E8457" d="m90 335 2 1c-3 2-3 2-6 2v2c-2.957 1.478-5.742 1.06-9 1a285.981 285.981 0 0 1 8.625-4.188l2.352-1.105L90 335Z"/><path fill="#308D31" d="M259 322h1c1.344 5.377 1.344 5.377-.313 8.375C258 332 258 332 256 332c-.365-4.256.525-6.536 3-10Z"/><path fill="#69A94A" d="m202 183 3 1-9 9v-5h3l.938-1.938C201 184 201 184 202 183Z"/><path fill="#33B141" d="m224 164 2 1-1.563 1.063c-1.838 2.032-1.838 2.032-1.125 5.625L224 175h-2a125.024 125.024 0 0 1-4-6l6-5Z"/><path fill="#7FB664" d="M193 27c1.125 3.75 1.125 3.75 0 6h-3v2c-1.375 1.625-1.375 1.625-3 3h-2l2-4h2l.875-2.375C191 29 191 29 193 27Z"/><path fill="#757677" d="M141.188 462.375 143 463c-1.75 5.75-1.75 5.75-4 8l-2-2h2v-4l-3-1c3-2 3-2 5.188-1.625Z"/><path fill="#719B52" d="M77 265c2.32.4 3.863.906 5.813 2.25C84 269 84 269 83.686 271.688L83 274c-2.4-2.88-4.473-5.564-6-9Z"/><path fill="#5DA730" d="M147 103c1.714 5.14.063 9.186-2 14h-1c-.346-5.654.566-9.03 3-14Z"/><path fill="#676968" d="m98 486 2 2c-.375 2.125-.375 2.125-1 4l-5 1c.564-3.27 1.5-4.826 4-7Z"/><path fill="#4D8055" d="M63 345h3v3l2 1c.625 2.563.625 2.563 1 5-5.571-5.143-5.571-5.143-6-9Z"/><path fill="#88A968" d="M108 181c10.558.964 10.558.964 15 2v1c-1.75.081-3.5.14-5.25.188l-2.953.105c-3.172-.332-4.467-1.18-6.797-3.293Z"/><path fill="#25A816" d="m235 151 1 2-6 7-2-1c3.625-5.75 3.625-5.75 7-8Z"/><path fill="#999A9A" d="m74 496 1 4h2v2h8v1c-1.437.027-2.875.046-4.313.063l-2.425.035C76 503 76 503 73 502l1-6Z"/><path fill="#6A9E72" d="M74 359c6.523 1.477 6.523 1.477 8.938 4.125.35.619.7 1.238 1.062 1.875l-2 1a962.085 962.085 0 0 1-4-2.938l-2.25-1.652L74 360v-1Z"/><path fill="#639A65" d="m237 352 1 3-3 1-.875 2c-1.125 2-1.125 2-3.75 2.75L228 361c4.625-4.875 4.625-4.875 8-6l1-3Z"/><path fill="#509A4D" d="M264 310h1c.125 6.75.125 6.75-1 9h-2l-1 3c-1-2-1-2-.223-4.383l1.16-2.742 1.153-2.758L264 310Z"/><path fill="#489447" d="M340 293h2c-.472 4.248-2.967 6.2-6 9l-1-4h3v-2h2v-3Z"/><path fill="#5B9033" d="M94 288c2.452.98 3.78 1.687 5.313 3.875.8 2.475.55 3.708-.313 6.125-3.442-2.66-3.995-5.903-5-10Z"/><path fill="#77A253" d="m81 170 10 4-4 2-3-2v-2h-5l2-2Z"/><path fill="#41B25E" d="M284 86c1.543 2.314 2.9 4.546 4.188 7l1.105 2.063C290 97 290 97 289 100l-2-2v-4h-2l-1-8Z"/><path fill="#55A631" d="m202 22 1 4-9 1c1.706-2.784 2.476-3.854 5.688-4.75L202 22Z"/><path fill="#545456" d="m118 496 3 4h-8v-3l5-1Z"/><path fill="#A7A9A8" d="M102 453h1v8h-5c-1.125-3.75-1.125-3.75 0-6 2 1 2 1 3 3h-2v2h3v-7Z"/><path fill="#427E42" d="M246 382c4.921-.167 8.503-.248 13 2l-1 2-12-3v-1Z"/><path fill="#56C067" d="M222 66h1c.125 7.75.125 7.75-1 10l-4-1 1-2c1.005-2.331 2.005-4.664 3-7Z"/><path fill="#7D7E80" d="m187 436 2 2c2.688.27 5.291.087 8 0v1l-3.313.375c-3.76.38-3.76.38-6.687 2.625l-2-4h2v-2Z"/><path fill="#5E615F" d="m295 435-3 5-3-1-1-3c2.463-1.231 4.28-1.072 7-1Z"/><path fill="#787979" d="M291 434h6c0 3 0 3-1.375 4.688C294 440 294 440 292 440l2-4-3-2Z"/><path fill="#68AB4D" d="m190 196 3 1-6 8-1-3h2l.438-2.438C189 197 189 197 190 196Z"/><path fill="#61C07A" d="m243 193 3 1v2h4v5a417.694 417.694 0 0 1-3.5-2.875l-1.969-1.617L243 195v-2Z"/><path fill="#60A460" d="M390 149v5h-8c4.839-5 4.839-5 8-5Z"/><path fill="#3DB25C" d="M277 73c3.092 2.53 3.91 5.225 5 9l-2 2c-3-6.5-3-6.5-3-11Z"/><path fill="#959696" d="m98 482 1 3 4-1c-.375 2.438-.375 2.438-1 5l-2 1c-1.563-1.188-1.563-1.188-3-3 .313-2.688.313-2.688 1-5Z"/><path fill="#828382" d="M68 444c-.557 3.344-1.352 6.033-3 9l-1-8c2-1 2-1 4-1Z"/><path fill="#505050" d="M169 435h10c-3.607 1.803-6.084 2.466-10 3v-3Z"/><path fill="#4C8757" d="M77 341v2c-3.089 2.06-3.71 2.239-7.188 2.125L66 345c3.389-2.26 6.848-4 11-4Z"/><path fill="#367A46" d="m98 330 1 4h-3l-1 3c-2-1-2-1-3-3l6-4Z"/><path fill="#66AA65" d="m367 164 2 1c-2.77 3.81-6.629 4.068-11 5 2.524-3.786 4.779-4.492 9-6Z"/><path fill="#838484" d="M100 491c-1.152 2.468-2.048 4.048-4 6l-3-3c1.596-3.191 3.64-3 7-3Z"/><path fill="#505251" d="M100 452h2v8h-3c-.125-5.75-.125-5.75 1-8Z"/><path fill="#565857" d="M134 436h9l1 2c-7.75 1.125-7.75 1.125-10 0v-2Z"/><path fill="#5F946A" d="m201 352 7 6-4 1c-2.25-1.438-2.25-1.438-4-3l1-4Z"/><path fill="#0FAC24" d="m232 157 1 2-4 5-3-1 6-6Z"/><path fill="#898A8B" d="M314 484c1.125 1.688 1.125 1.688 2 4-.875 2.75-.875 2.75-2 5l-3-1 .938-2.313A110.556 110.556 0 0 0 314 484Z"/><path fill="#525355" d="M130 465h8l-2 3c-3.625.188-3.625.188-7 0l1-3Z"/><path fill="#679952" d="m182 327 4 8-4-1c-.934-3.01-1.044-3.867 0-7Z"/><path fill="#639541" d="M112 312c2.962.613 4.38 1.254 7 3h-2l-1 3c-4-4.875-4-4.875-4-6Z"/><path fill="#358827" d="M383 199h2l-1 8-3-3 2-5Z"/><path fill="#838383" d="m156 486 2 3-1 3-5 1 4-7Z"/><path fill="#535554" d="m219 482 2 1v3h-6l1-3 3-1Z"/><path fill="#7C7E7D" d="m77 434-1 4-1-2-6 1c2.466-3.115 4.108-3.316 8-3Z"/><path fill="#739B52" d="M67 162c3.375 1.186 5.647 2.276 8 5-2.875-.25-2.875-.25-6-1-1.375-2.063-1.375-2.063-2-4Z"/></svg>